<?xml version="1.0" encoding="utf-8"?>
<!-- Generator: Adobe Illustrator 21.0.2, SVG Export Plug-In . SVG Version: 6.00 Build 0)  -->
<svg version="1.1" id="Layer_1" xmlns="http://www.w3.org/2000/svg" xmlns:xlink="http://www.w3.org/1999/xlink" x="0px" y="0px"
	 viewBox="0 0 150 150" style="enable-background:new 0 0 150 150;" xml:space="preserve">
<style type="text/css">
	.st0{fill:#40BCC1;}
	.st1{fill:#008BA1;}
	.st2{fill:#F36B00;}
</style>
<g>
	<g>
		<g>
			<path class="st0" d="M38.5,68c-0.7-2.3-0.8-4.7-0.2-7.1c1.8-7,8.9-11.2,15.9-9.5c6.8,1.7,10.9,8.4,9.6,15.2l24.7,18.8
				c3.3-1.7,7.3-1.9,10.8-0.5l26.2-24.6c-0.4-1.3-0.7-2.7-0.7-4.1c0-3.5,1.4-6.8,3.8-9.3c0.7-0.7,1.5-1.3,2.3-1.8
				c-11.2-18.5-31.5-30.9-54.7-30.9c-35.3,0-63.9,28.6-63.9,63.9c0,2.5,0.1,4.9,0.4,7.3c1.7,0,3.4,0.4,5.1,1L38.5,68z"/>
			<g>
				<path class="st1" d="M133.5,68.6L107,93.5c0.6,2.2,0.7,4.5,0.1,6.7c-1.5,6-6.8,9.9-12.7,9.9c-1.1,0-2.1-0.1-3.2-0.4
					c-3.4-0.8-6.3-3-8.1-6c-1.7-2.8-2.3-6-1.6-9.2L56.8,75.9c-3.2,1.6-7,1.8-10.4,0.5l-21,18.9c0.8,3,0.5,6.2-0.9,9
					c-1,2-2.4,3.6-4.1,4.9C31.3,128.8,52.2,142,76.2,142c35.3,0,63.9-28.6,63.9-63.9c0-3-0.2-6-0.6-8.9c-0.5,0.1-1.1,0.1-1.6,0.1
					C136.4,69.4,135,69.1,133.5,68.6z"/>
			</g>
		</g>
	</g>
</g>
<path class="st2" d="M137.9,46.5c-1.7,0-3.4,0.5-4.9,1.3c-4.6,2.7-6.2,8.7-3.5,13.3L99.8,89c-3.5-2.4-8.2-2.2-11.5,0.5L59.9,67.9
	c1.2-2.8,1-5.9-0.5-8.6c-2.6-4.7-8.6-6.4-13.3-3.7c-4.7,2.6-6.4,8.6-3.7,13.3L18.4,90.6c-2.9-2-6.7-2.3-9.9-0.8
	c-4.8,2.4-6.8,8.2-4.5,13s8.2,6.8,13,4.5c4.8-2.4,6.8-8.2,4.5-13l24.3-21.9c3.5,2.2,7.9,1.9,11.1-0.6l28.4,21.6
	c-1.1,2.6-1,5.6,0.3,8.2c2.5,4.8,8.3,6.7,13.1,4.2s6.7-8.3,4.2-13.1l29.8-28c1.5,0.9,3.2,1.4,5,1.4c5.4,0,9.7-4.4,9.7-9.8
	S143.2,46.5,137.9,46.5z"/>
</svg>
